<mxfile host="Electron" agent="Mozilla/5.0 (Windows NT 10.0; Win64; x64) AppleWebKit/537.36 (KHTML, like Gecko) draw.io/28.0.4 Chrome/138.0.7204.97 Electron/37.2.1 Safari/537.36" version="28.0.4">
  <diagram name="Page-1" id="onxP4JfPwNa4epTdOo82">
    <mxGraphModel dx="3491" dy="889" grid="0" gridSize="10" guides="1" tooltips="1" connect="1" arrows="1" fold="1" page="0" pageScale="1" pageWidth="827" pageHeight="1169" math="0" shadow="0">
      <root>
        <mxCell id="0" />
        <mxCell id="1" parent="0" />
        <mxCell id="If4_q0kXJj8Fwwu1IU7B-143" value="Welcome" style="whiteSpace=wrap;strokeWidth=2;fontSize=19;fillColor=#f8cecc;strokeColor=#b85450;" parent="1" vertex="1">
          <mxGeometry x="300" y="383" width="125" height="54" as="geometry" />
        </mxCell>
        <mxCell id="If4_q0kXJj8Fwwu1IU7B-144" value="Select Unit Type" style="whiteSpace=wrap;strokeWidth=2;fontSize=19;fillColor=#e1d5e7;strokeColor=#9673a6;" parent="1" vertex="1">
          <mxGeometry x="274" y="487" width="176" height="54" as="geometry" />
        </mxCell>
        <mxCell id="If4_q0kXJj8Fwwu1IU7B-145" value="Unit Type?" style="rhombus;strokeWidth=2;whiteSpace=wrap;fontSize=19;fillColor=#ffe6cc;strokeColor=#d79b00;" parent="1" vertex="1">
          <mxGeometry x="299" y="591" width="127" height="127" as="geometry" />
        </mxCell>
        <mxCell id="If4_q0kXJj8Fwwu1IU7B-146" value="Choose IAHC Model" style="whiteSpace=wrap;strokeWidth=2;fontSize=19;fillColor=#dae8fc;strokeColor=#6c8ebf;" parent="1" vertex="1">
          <mxGeometry x="20" y="791" width="197" height="54" as="geometry" />
        </mxCell>
        <mxCell id="If4_q0kXJj8Fwwu1IU7B-147" value="Choose PHC Model" style="whiteSpace=wrap;strokeWidth=2;fontSize=19;fillColor=#dae8fc;strokeColor=#6c8ebf;" parent="1" vertex="1">
          <mxGeometry x="267" y="791" width="192" height="54" as="geometry" />
        </mxCell>
        <mxCell id="If4_q0kXJj8Fwwu1IU7B-148" value="Choose Shock Absorber" style="whiteSpace=wrap;strokeWidth=2;fontSize=19;fillColor=#dae8fc;strokeColor=#6c8ebf;" parent="1" vertex="1">
          <mxGeometry x="508" y="791" width="224" height="54" as="geometry" />
        </mxCell>
        <mxCell id="If4_q0kXJj8Fwwu1IU7B-149" value="Set Parameters" style="whiteSpace=wrap;strokeWidth=2;fontSize=19;fillColor=#e1d5e7;strokeColor=#9673a6;" parent="1" vertex="1">
          <mxGeometry x="278" y="895" width="169" height="54" as="geometry" />
        </mxCell>
        <mxCell id="If4_q0kXJj8Fwwu1IU7B-150" value="Configure Results" style="whiteSpace=wrap;strokeWidth=2;fontSize=19;fillColor=#e1d5e7;strokeColor=#9673a6;" parent="1" vertex="1">
          <mxGeometry x="270" y="999" width="184" height="54" as="geometry" />
        </mxCell>
        <mxCell id="If4_q0kXJj8Fwwu1IU7B-151" value="Results Type?" style="rhombus;strokeWidth=2;whiteSpace=wrap;fontSize=19;fillColor=#ffe6cc;strokeColor=#d79b00;" parent="1" vertex="1">
          <mxGeometry x="289" y="1103" width="148" height="148" as="geometry" />
        </mxCell>
        <mxCell id="If4_q0kXJj8Fwwu1IU7B-152" value="Use OrcaFlex Default" style="whiteSpace=wrap;strokeWidth=2;fontSize=19;fillColor=#dae8fc;strokeColor=#6c8ebf;" parent="1" vertex="1">
          <mxGeometry x="124" y="1324" width="211" height="54" as="geometry" />
        </mxCell>
        <mxCell id="If4_q0kXJj8Fwwu1IU7B-153" value="Select Custom Parameters" style="whiteSpace=wrap;strokeWidth=2;fontSize=19;fillColor=#dae8fc;strokeColor=#6c8ebf;" parent="1" vertex="1">
          <mxGeometry x="385" y="1324" width="248" height="54" as="geometry" />
        </mxCell>
        <mxCell id="If4_q0kXJj8Fwwu1IU7B-154" value="Export Configuration" style="whiteSpace=wrap;strokeWidth=2;fontSize=19;fillColor=#e1d5e7;strokeColor=#9673a6;" parent="1" vertex="1">
          <mxGeometry x="258" y="1428" width="208" height="54" as="geometry" />
        </mxCell>
        <mxCell id="If4_q0kXJj8Fwwu1IU7B-155" value="Download INI File" style="whiteSpace=wrap;strokeWidth=2;fontSize=19;fillColor=#e1d5e7;strokeColor=#9673a6;" parent="1" vertex="1">
          <mxGeometry x="270" y="1532" width="185" height="54" as="geometry" />
        </mxCell>
        <mxCell id="If4_q0kXJj8Fwwu1IU7B-156" value="Use in OrcaFlex" style="whiteSpace=wrap;strokeWidth=2;fontSize=19;fillColor=#d5e8d4;strokeColor=#82b366;" parent="1" vertex="1">
          <mxGeometry x="277" y="1636" width="172" height="54" as="geometry" />
        </mxCell>
        <mxCell id="If4_q0kXJj8Fwwu1IU7B-157" value="" style="curved=1;startArrow=none;endArrow=block;exitX=0.5;exitY=1;entryX=0.5;entryY=0;rounded=0;fontSize=19;fillColor=#e3c800;strokeColor=#B09500;" parent="1" source="If4_q0kXJj8Fwwu1IU7B-143" target="If4_q0kXJj8Fwwu1IU7B-144" edge="1">
          <mxGeometry relative="1" as="geometry">
            <Array as="points" />
          </mxGeometry>
        </mxCell>
        <mxCell id="If4_q0kXJj8Fwwu1IU7B-158" value="" style="curved=1;startArrow=none;endArrow=block;exitX=0.5;exitY=1;entryX=0.5;entryY=0;rounded=0;fontSize=19;strokeColor=#B09500;align=center;verticalAlign=middle;fontFamily=Helvetica;fontColor=default;labelBackgroundColor=default;fillColor=#e3c800;" parent="1" source="If4_q0kXJj8Fwwu1IU7B-144" target="If4_q0kXJj8Fwwu1IU7B-145" edge="1">
          <mxGeometry relative="1" as="geometry">
            <Array as="points" />
          </mxGeometry>
        </mxCell>
        <mxCell id="If4_q0kXJj8Fwwu1IU7B-159" value="" style="curved=1;startArrow=none;endArrow=block;exitX=0;exitY=0.71;entryX=0.5;entryY=0.01;rounded=0;fontSize=19;strokeColor=#B09500;align=center;verticalAlign=middle;fontFamily=Helvetica;fontColor=default;labelBackgroundColor=default;fillColor=#e3c800;" parent="1" source="If4_q0kXJj8Fwwu1IU7B-145" target="If4_q0kXJj8Fwwu1IU7B-146" edge="1">
          <mxGeometry relative="1" as="geometry">
            <Array as="points">
              <mxPoint x="118" y="755" />
            </Array>
          </mxGeometry>
        </mxCell>
        <mxCell id="If4_q0kXJj8Fwwu1IU7B-160" value="" style="curved=1;startArrow=none;endArrow=block;exitX=0.5;exitY=1;entryX=0.5;entryY=0.01;rounded=0;fontSize=19;strokeColor=#B09500;align=center;verticalAlign=middle;fontFamily=Helvetica;fontColor=default;labelBackgroundColor=default;fillColor=#e3c800;" parent="1" source="If4_q0kXJj8Fwwu1IU7B-145" target="If4_q0kXJj8Fwwu1IU7B-147" edge="1">
          <mxGeometry relative="1" as="geometry">
            <Array as="points" />
          </mxGeometry>
        </mxCell>
        <mxCell id="If4_q0kXJj8Fwwu1IU7B-161" value="" style="curved=1;startArrow=none;endArrow=block;exitX=1;exitY=0.7;entryX=0.5;entryY=0.01;rounded=0;fontSize=19;strokeColor=#B09500;align=center;verticalAlign=middle;fontFamily=Helvetica;fontColor=default;labelBackgroundColor=default;fillColor=#e3c800;" parent="1" source="If4_q0kXJj8Fwwu1IU7B-145" target="If4_q0kXJj8Fwwu1IU7B-148" edge="1">
          <mxGeometry relative="1" as="geometry">
            <Array as="points">
              <mxPoint x="620" y="755" />
            </Array>
          </mxGeometry>
        </mxCell>
        <mxCell id="If4_q0kXJj8Fwwu1IU7B-162" value="" style="curved=1;startArrow=none;endArrow=block;exitX=0.5;exitY=1.01;entryX=0;entryY=0.18;rounded=0;fontSize=19;strokeColor=#B09500;align=center;verticalAlign=middle;fontFamily=Helvetica;fontColor=default;labelBackgroundColor=default;fillColor=#e3c800;" parent="1" source="If4_q0kXJj8Fwwu1IU7B-146" target="If4_q0kXJj8Fwwu1IU7B-149" edge="1">
          <mxGeometry relative="1" as="geometry">
            <Array as="points">
              <mxPoint x="118" y="870" />
            </Array>
          </mxGeometry>
        </mxCell>
        <mxCell id="If4_q0kXJj8Fwwu1IU7B-163" value="" style="curved=1;startArrow=none;endArrow=block;exitX=0.5;exitY=1.01;entryX=0.5;entryY=0.01;rounded=0;fontSize=19;strokeColor=#B09500;align=center;verticalAlign=middle;fontFamily=Helvetica;fontColor=default;labelBackgroundColor=default;fillColor=#e3c800;" parent="1" source="If4_q0kXJj8Fwwu1IU7B-147" target="If4_q0kXJj8Fwwu1IU7B-149" edge="1">
          <mxGeometry relative="1" as="geometry">
            <Array as="points" />
          </mxGeometry>
        </mxCell>
        <mxCell id="If4_q0kXJj8Fwwu1IU7B-164" value="" style="curved=1;startArrow=none;endArrow=block;exitX=0.5;exitY=1.01;entryX=1;entryY=0.19;rounded=0;fontSize=19;strokeColor=#B09500;align=center;verticalAlign=middle;fontFamily=Helvetica;fontColor=default;labelBackgroundColor=default;fillColor=#e3c800;" parent="1" source="If4_q0kXJj8Fwwu1IU7B-148" target="If4_q0kXJj8Fwwu1IU7B-149" edge="1">
          <mxGeometry relative="1" as="geometry">
            <Array as="points">
              <mxPoint x="620" y="870" />
            </Array>
          </mxGeometry>
        </mxCell>
        <mxCell id="If4_q0kXJj8Fwwu1IU7B-165" value="" style="curved=1;startArrow=none;endArrow=block;exitX=0.5;exitY=1.01;entryX=0.5;entryY=0.01;rounded=0;fontSize=19;strokeColor=#B09500;align=center;verticalAlign=middle;fontFamily=Helvetica;fontColor=default;labelBackgroundColor=default;fillColor=#e3c800;" parent="1" source="If4_q0kXJj8Fwwu1IU7B-149" target="If4_q0kXJj8Fwwu1IU7B-150" edge="1">
          <mxGeometry relative="1" as="geometry">
            <Array as="points" />
          </mxGeometry>
        </mxCell>
        <mxCell id="If4_q0kXJj8Fwwu1IU7B-166" value="" style="curved=1;startArrow=none;endArrow=block;exitX=0.5;exitY=1.01;entryX=0.5;entryY=0;rounded=0;fontSize=19;strokeColor=#B09500;align=center;verticalAlign=middle;fontFamily=Helvetica;fontColor=default;labelBackgroundColor=default;fillColor=#e3c800;" parent="1" source="If4_q0kXJj8Fwwu1IU7B-150" target="If4_q0kXJj8Fwwu1IU7B-151" edge="1">
          <mxGeometry relative="1" as="geometry">
            <Array as="points" />
          </mxGeometry>
        </mxCell>
        <mxCell id="If4_q0kXJj8Fwwu1IU7B-167" value="" style="curved=1;startArrow=none;endArrow=block;exitX=0;exitY=0.91;entryX=0.5;entryY=0;rounded=0;fontSize=19;strokeColor=#B09500;align=center;verticalAlign=middle;fontFamily=Helvetica;fontColor=default;labelBackgroundColor=default;fillColor=#e3c800;" parent="1" source="If4_q0kXJj8Fwwu1IU7B-151" target="If4_q0kXJj8Fwwu1IU7B-152" edge="1">
          <mxGeometry relative="1" as="geometry">
            <Array as="points">
              <mxPoint x="230" y="1287" />
            </Array>
          </mxGeometry>
        </mxCell>
        <mxCell id="If4_q0kXJj8Fwwu1IU7B-168" value="" style="curved=1;startArrow=none;endArrow=block;exitX=0.99;exitY=0.88;entryX=0.5;entryY=0;rounded=0;fontSize=19;strokeColor=#B09500;align=center;verticalAlign=middle;fontFamily=Helvetica;fontColor=default;labelBackgroundColor=default;fillColor=#e3c800;" parent="1" source="If4_q0kXJj8Fwwu1IU7B-151" target="If4_q0kXJj8Fwwu1IU7B-153" edge="1">
          <mxGeometry relative="1" as="geometry">
            <Array as="points">
              <mxPoint x="509" y="1287" />
            </Array>
          </mxGeometry>
        </mxCell>
        <mxCell id="If4_q0kXJj8Fwwu1IU7B-169" value="" style="curved=1;startArrow=none;endArrow=block;exitX=0.5;exitY=1;entryX=0.17;entryY=0;rounded=0;fontSize=19;strokeColor=#B09500;align=center;verticalAlign=middle;fontFamily=Helvetica;fontColor=default;labelBackgroundColor=default;fillColor=#e3c800;" parent="1" source="If4_q0kXJj8Fwwu1IU7B-152" target="If4_q0kXJj8Fwwu1IU7B-154" edge="1">
          <mxGeometry relative="1" as="geometry">
            <Array as="points">
              <mxPoint x="230" y="1403" />
            </Array>
          </mxGeometry>
        </mxCell>
        <mxCell id="If4_q0kXJj8Fwwu1IU7B-170" value="" style="curved=1;startArrow=none;endArrow=block;exitX=0.5;exitY=1;entryX=0.87;entryY=0;rounded=0;fontSize=19;strokeColor=#B09500;align=center;verticalAlign=middle;fontFamily=Helvetica;fontColor=default;labelBackgroundColor=default;fillColor=#e3c800;" parent="1" source="If4_q0kXJj8Fwwu1IU7B-153" target="If4_q0kXJj8Fwwu1IU7B-154" edge="1">
          <mxGeometry relative="1" as="geometry">
            <Array as="points">
              <mxPoint x="509" y="1403" />
            </Array>
          </mxGeometry>
        </mxCell>
        <mxCell id="If4_q0kXJj8Fwwu1IU7B-171" value="" style="curved=1;startArrow=none;endArrow=block;exitX=0.5;exitY=1;entryX=0.5;entryY=0;rounded=0;fontSize=19;strokeColor=#B09500;align=center;verticalAlign=middle;fontFamily=Helvetica;fontColor=default;labelBackgroundColor=default;fillColor=#e3c800;" parent="1" source="If4_q0kXJj8Fwwu1IU7B-154" target="If4_q0kXJj8Fwwu1IU7B-155" edge="1">
          <mxGeometry relative="1" as="geometry">
            <Array as="points" />
          </mxGeometry>
        </mxCell>
        <mxCell id="If4_q0kXJj8Fwwu1IU7B-172" value="" style="curved=1;startArrow=none;endArrow=block;exitX=0.5;exitY=1;entryX=0.5;entryY=0;rounded=0;fontSize=19;strokeColor=#B09500;align=center;verticalAlign=middle;fontFamily=Helvetica;fontColor=default;labelBackgroundColor=default;fillColor=#e3c800;" parent="1" source="If4_q0kXJj8Fwwu1IU7B-155" target="If4_q0kXJj8Fwwu1IU7B-156" edge="1">
          <mxGeometry relative="1" as="geometry">
            <Array as="points" />
          </mxGeometry>
        </mxCell>
        <mxCell id="dTzmcXaFt5rr0w2ORB2M-2" value="Select Unit" style="whiteSpace=wrap;strokeWidth=2;fontSize=19;fillColor=#e1d5e7;strokeColor=#9673a6;rounded=1;" vertex="1" parent="1">
          <mxGeometry x="1400.5" y="659" width="169.291" height="54" as="geometry" />
        </mxCell>
        <mxCell id="dTzmcXaFt5rr0w2ORB2M-4" value="IAHC" style="whiteSpace=wrap;strokeWidth=2;fontSize=19;fillColor=#dae8fc;strokeColor=#6c8ebf;rounded=1;" vertex="1" parent="1">
          <mxGeometry x="1214" y="782" width="157.48" height="54" as="geometry" />
        </mxCell>
        <mxCell id="dTzmcXaFt5rr0w2ORB2M-5" value="PHC" style="whiteSpace=wrap;strokeWidth=2;fontSize=19;fillColor=#dae8fc;strokeColor=#6c8ebf;rounded=1;" vertex="1" parent="1">
          <mxGeometry x="1406.41" y="782" width="157.48" height="54" as="geometry" />
        </mxCell>
        <mxCell id="dTzmcXaFt5rr0w2ORB2M-6" value="Shock Absorber" style="whiteSpace=wrap;strokeWidth=2;fontSize=19;fillColor=#dae8fc;strokeColor=#6c8ebf;rounded=1;" vertex="1" parent="1">
          <mxGeometry x="1609" y="782" width="157.48" height="54" as="geometry" />
        </mxCell>
        <mxCell id="dTzmcXaFt5rr0w2ORB2M-7" value="Setup Parameters" style="whiteSpace=wrap;strokeWidth=2;fontSize=19;fillColor=#e1d5e7;strokeColor=#9673a6;rounded=1;" vertex="1" parent="1">
          <mxGeometry x="1400.5" y="895" width="169.291" height="54" as="geometry" />
        </mxCell>
        <mxCell id="dTzmcXaFt5rr0w2ORB2M-8" value="Select Results" style="whiteSpace=wrap;strokeWidth=2;fontSize=19;fillColor=#e1d5e7;strokeColor=#9673a6;rounded=1;" vertex="1" parent="1">
          <mxGeometry x="1400.5" y="999" width="169.291" height="54" as="geometry" />
        </mxCell>
        <mxCell id="dTzmcXaFt5rr0w2ORB2M-10" value="OrcaFlex Defaults" style="whiteSpace=wrap;strokeWidth=2;fontSize=19;fillColor=#dae8fc;strokeColor=#6c8ebf;rounded=1;" vertex="1" parent="1">
          <mxGeometry x="1262" y="1117.68" width="187" height="54" as="geometry" />
        </mxCell>
        <mxCell id="dTzmcXaFt5rr0w2ORB2M-11" value="Customized" style="whiteSpace=wrap;strokeWidth=2;fontSize=19;fillColor=#dae8fc;strokeColor=#6c8ebf;rounded=1;" vertex="1" parent="1">
          <mxGeometry x="1562" y="1117.68" width="146" height="54" as="geometry" />
        </mxCell>
        <mxCell id="dTzmcXaFt5rr0w2ORB2M-12" value="Export Configuration" style="whiteSpace=wrap;strokeWidth=2;fontSize=19;fillColor=#e1d5e7;strokeColor=#9673a6;rounded=1;" vertex="1" parent="1">
          <mxGeometry x="1400.5" y="1221.68" width="169.291" height="54" as="geometry" />
        </mxCell>
        <mxCell id="dTzmcXaFt5rr0w2ORB2M-14" value="Use .ini file in OrcaFlex" style="whiteSpace=wrap;strokeWidth=1.9685;fontSize=19;fillColor=#d5e8d4;strokeColor=#82b366;rounded=1;dashed=1;dashPattern=8 8;" vertex="1" parent="1">
          <mxGeometry x="1399.15" y="1319" width="172" height="54" as="geometry" />
        </mxCell>
        <mxCell id="dTzmcXaFt5rr0w2ORB2M-17" value="" style="curved=1;startArrow=none;endArrow=block;exitX=0.25;exitY=1;entryX=0.5;entryY=0.01;rounded=0;fontSize=19;strokeColor=#B09500;align=center;verticalAlign=middle;fontFamily=Helvetica;fontColor=default;labelBackgroundColor=default;fillColor=#e3c800;exitDx=0;exitDy=0;edgeStyle=orthogonalEdgeStyle;" edge="1" source="dTzmcXaFt5rr0w2ORB2M-2" target="dTzmcXaFt5rr0w2ORB2M-4" parent="1">
          <mxGeometry relative="1" as="geometry">
            <mxPoint x="1443.781690140845" y="673.2816901408453" as="sourcePoint" />
          </mxGeometry>
        </mxCell>
        <mxCell id="dTzmcXaFt5rr0w2ORB2M-18" value="" style="curved=1;startArrow=none;endArrow=block;exitX=0.5;exitY=1;entryX=0.5;entryY=0.01;rounded=0;fontSize=19;strokeColor=#B09500;align=center;verticalAlign=middle;fontFamily=Helvetica;fontColor=default;labelBackgroundColor=default;fillColor=#e3c800;exitDx=0;exitDy=0;edgeStyle=orthogonalEdgeStyle;" edge="1" source="dTzmcXaFt5rr0w2ORB2M-2" target="dTzmcXaFt5rr0w2ORB2M-5" parent="1">
          <mxGeometry relative="1" as="geometry">
            <mxPoint x="1488.499999999999" y="718" as="sourcePoint" />
          </mxGeometry>
        </mxCell>
        <mxCell id="dTzmcXaFt5rr0w2ORB2M-19" value="" style="curved=1;startArrow=none;endArrow=block;exitX=0.75;exitY=1;entryX=0.5;entryY=0.01;rounded=0;fontSize=19;strokeColor=#B09500;align=center;verticalAlign=middle;fontFamily=Helvetica;fontColor=default;labelBackgroundColor=default;fillColor=#e3c800;exitDx=0;exitDy=0;edgeStyle=orthogonalEdgeStyle;" edge="1" source="dTzmcXaFt5rr0w2ORB2M-2" target="dTzmcXaFt5rr0w2ORB2M-6" parent="1">
          <mxGeometry relative="1" as="geometry">
            <mxPoint x="1533.8571428571431" y="672.6428571428573" as="sourcePoint" />
          </mxGeometry>
        </mxCell>
        <mxCell id="dTzmcXaFt5rr0w2ORB2M-20" value="" style="curved=1;startArrow=none;endArrow=block;exitX=0.5;exitY=1.01;entryX=0.25;entryY=0;rounded=0;fontSize=19;strokeColor=#B09500;align=center;verticalAlign=middle;fontFamily=Helvetica;fontColor=default;labelBackgroundColor=default;fillColor=#e3c800;edgeStyle=orthogonalEdgeStyle;entryDx=0;entryDy=0;" edge="1" source="dTzmcXaFt5rr0w2ORB2M-4" target="dTzmcXaFt5rr0w2ORB2M-7" parent="1">
          <mxGeometry relative="1" as="geometry" />
        </mxCell>
        <mxCell id="dTzmcXaFt5rr0w2ORB2M-21" value="" style="curved=1;startArrow=none;endArrow=block;exitX=0.5;exitY=1.01;entryX=0.5;entryY=0.01;rounded=0;fontSize=19;strokeColor=#B09500;align=center;verticalAlign=middle;fontFamily=Helvetica;fontColor=default;labelBackgroundColor=default;fillColor=#e3c800;edgeStyle=orthogonalEdgeStyle;" edge="1" source="dTzmcXaFt5rr0w2ORB2M-5" target="dTzmcXaFt5rr0w2ORB2M-7" parent="1">
          <mxGeometry relative="1" as="geometry" />
        </mxCell>
        <mxCell id="dTzmcXaFt5rr0w2ORB2M-22" value="" style="curved=1;startArrow=none;endArrow=block;exitX=0.5;exitY=1.01;entryX=0.75;entryY=0;rounded=0;fontSize=19;strokeColor=#B09500;align=center;verticalAlign=middle;fontFamily=Helvetica;fontColor=default;labelBackgroundColor=default;fillColor=#e3c800;edgeStyle=orthogonalEdgeStyle;entryDx=0;entryDy=0;" edge="1" source="dTzmcXaFt5rr0w2ORB2M-6" target="dTzmcXaFt5rr0w2ORB2M-7" parent="1">
          <mxGeometry relative="1" as="geometry" />
        </mxCell>
        <mxCell id="dTzmcXaFt5rr0w2ORB2M-23" value="" style="curved=1;startArrow=none;endArrow=block;exitX=0.5;exitY=1.01;entryX=0.5;entryY=0.01;rounded=0;fontSize=19;strokeColor=#B09500;align=center;verticalAlign=middle;fontFamily=Helvetica;fontColor=default;labelBackgroundColor=default;fillColor=#e3c800;" edge="1" source="dTzmcXaFt5rr0w2ORB2M-7" target="dTzmcXaFt5rr0w2ORB2M-8" parent="1">
          <mxGeometry relative="1" as="geometry">
            <Array as="points" />
          </mxGeometry>
        </mxCell>
        <mxCell id="dTzmcXaFt5rr0w2ORB2M-25" value="" style="curved=1;startArrow=none;endArrow=block;exitX=0.25;exitY=1;entryX=0.5;entryY=0;rounded=0;fontSize=19;strokeColor=#B09500;align=center;verticalAlign=middle;fontFamily=Helvetica;fontColor=default;labelBackgroundColor=default;fillColor=#e3c800;exitDx=0;exitDy=0;edgeStyle=orthogonalEdgeStyle;" edge="1" source="dTzmcXaFt5rr0w2ORB2M-8" target="dTzmcXaFt5rr0w2ORB2M-10" parent="1">
          <mxGeometry relative="1" as="geometry">
            <mxPoint x="1448.3406593406594" y="1004.0206593406592" as="sourcePoint" />
          </mxGeometry>
        </mxCell>
        <mxCell id="dTzmcXaFt5rr0w2ORB2M-26" value="" style="curved=1;startArrow=none;endArrow=block;exitX=0.75;exitY=1;entryX=0.5;entryY=0;rounded=0;fontSize=19;strokeColor=#B09500;align=center;verticalAlign=middle;fontFamily=Helvetica;fontColor=default;labelBackgroundColor=default;fillColor=#e3c800;exitDx=0;exitDy=0;edgeStyle=orthogonalEdgeStyle;" edge="1" source="dTzmcXaFt5rr0w2ORB2M-8" target="dTzmcXaFt5rr0w2ORB2M-11" parent="1">
          <mxGeometry relative="1" as="geometry">
            <mxPoint x="1530.6781609195405" y="1003.0018390804601" as="sourcePoint" />
          </mxGeometry>
        </mxCell>
        <mxCell id="dTzmcXaFt5rr0w2ORB2M-27" value="" style="curved=1;startArrow=none;endArrow=block;exitX=0.5;exitY=1;entryX=0.17;entryY=0;rounded=0;fontSize=19;strokeColor=#B09500;align=center;verticalAlign=middle;fontFamily=Helvetica;fontColor=default;labelBackgroundColor=default;fillColor=#e3c800;edgeStyle=orthogonalEdgeStyle;" edge="1" source="dTzmcXaFt5rr0w2ORB2M-10" target="dTzmcXaFt5rr0w2ORB2M-12" parent="1">
          <mxGeometry relative="1" as="geometry" />
        </mxCell>
        <mxCell id="dTzmcXaFt5rr0w2ORB2M-28" value="" style="curved=1;startArrow=none;endArrow=block;exitX=0.5;exitY=1;entryX=0.87;entryY=0;rounded=0;fontSize=19;strokeColor=#B09500;align=center;verticalAlign=middle;fontFamily=Helvetica;fontColor=default;labelBackgroundColor=default;fillColor=#e3c800;edgeStyle=orthogonalEdgeStyle;" edge="1" source="dTzmcXaFt5rr0w2ORB2M-11" target="dTzmcXaFt5rr0w2ORB2M-12" parent="1">
          <mxGeometry relative="1" as="geometry" />
        </mxCell>
        <mxCell id="dTzmcXaFt5rr0w2ORB2M-29" value="" style="curved=1;startArrow=none;endArrow=block;exitX=0.5;exitY=1;rounded=0;fontSize=19;strokeColor=#B09500;align=center;verticalAlign=middle;fontFamily=Helvetica;fontColor=default;labelBackgroundColor=default;fillColor=#e3c800;" edge="1" source="dTzmcXaFt5rr0w2ORB2M-12" target="dTzmcXaFt5rr0w2ORB2M-14" parent="1">
          <mxGeometry relative="1" as="geometry">
            <Array as="points" />
            <mxPoint x="1488.5" y="1325.68" as="targetPoint" />
          </mxGeometry>
        </mxCell>
      </root>
    </mxGraphModel>
  </diagram>
</mxfile>
